<?xml version="1.0" encoding="UTF-8"?>
<svg id="Layer_1" data-name="Layer 1" xmlns="http://www.w3.org/2000/svg" viewBox="0 0 1000 500">
  <defs>
    <style>
      .cls-1 {
        fill: #fff;
        stroke-width: 0px;
      }
    </style>
  </defs>
  <polygon class="cls-1" points="78.99 267.91 32.13 233.87 74.27 175.87 6.09 153.72 23.99 98.64 92.17 120.79 92.17 49.11 150.08 49.11 150.08 120.79 218.26 98.64 236.15 153.72 167.98 175.87 210.11 233.87 163.26 267.91 121.12 209.91 78.99 267.91"/>
  <polygon class="cls-1" points="261.82 14.01 201.31 14.01 201.31 74.53 261.82 74.53 261.82 272.88 322.33 272.88 322.33 14.01 261.82 14.01"/>
  <polygon class="cls-1" points="605.22 217.92 605.22 14.01 544.71 14.01 544.71 482.34 605.22 482.34 605.22 278.43 665.74 278.43 665.74 217.92 605.22 217.92"/>
  <rect class="cls-1" x="928.49" y="14.01" width="60.51" height="347.3"/>
  <rect class="cls-1" x="731.44" y="278.43" width="60.51" height="203.91"/>
  <rect class="cls-1" x="731.44" y="421.82" width="257.56" height="60.51"/>
  <path class="cls-1" d="M220.29,482.34c-54.79,0-99.37-44.58-99.37-99.37s44.58-99.37,99.37-99.37,99.37,44.58,99.37,99.37-44.58,99.37-99.37,99.37ZM220.29,338.77c-24.37,0-44.2,19.83-44.2,44.2s19.83,44.2,44.2,44.2,44.2-19.83,44.2-44.2-19.83-44.2-44.2-44.2Z"/>
  <polygon class="cls-1" points="488.68 175.87 470.78 152.36 470.78 93.91 470.78 49.11 441.82 49.11 412.87 49.11 412.87 93.91 412.87 152.36 394.97 175.87 352.84 233.87 399.69 267.91 441.82 209.91 483.96 267.91 530.81 233.87 488.68 175.87"/>
  <polygon class="cls-1" points="902.97 103.73 885.07 48.65 816.89 70.81 787.94 80.21 758.98 70.81 690.81 48.65 672.91 103.73 741.08 125.88 698.95 183.88 745.8 217.92 787.94 159.92 830.07 217.92 876.92 183.88 834.79 125.88 902.97 103.73"/>
</svg>